<svg width="50" height="51" viewBox="0 0 50 51" fill="none" xmlns="http://www.w3.org/2000/svg">
<g clip-path="url(#clip0_445_360)">
<path d="M50 25.6363C50 22.5782 49.4499 19.6489 48.445 16.9406L25 15.8536L1.55498 16.9406C0.550098 19.6489 0 22.5782 0 25.6363C0 28.6943 0.550098 31.6237 1.55498 34.3319L25 35.4189L48.445 34.332C49.4499 31.6237 50 28.6943 50 25.6363Z" fill="#F0F0F0"/>
<path d="M25 50.6362C35.7491 50.6362 44.9127 43.8518 48.445 34.3318H1.55499C5.08732 43.8518 14.2509 50.6362 25 50.6362Z" fill="#0052B4"/>
<path d="M1.55499 16.9406H48.4451C44.9127 7.4206 35.7491 0.63623 25 0.63623C14.2509 0.63623 5.08732 7.4206 1.55499 16.9406V16.9406Z" fill="#D80027"/>
<path d="M31.5217 18.0276H27.1739L27.8986 12.5927L30.797 10.4188L33.6956 12.5927V16.9406L31.5217 18.0276Z" fill="#338AF3"/>
<path d="M18.4782 18.0276H22.8261L22.1014 12.5927L19.2028 10.4188L16.3044 12.5927V16.9406L18.4782 18.0276Z" fill="#338AF3"/>
<path d="M27.8986 18.0276H22.1014V12.5927L25 10.4188L27.8986 12.5927V18.0276Z" fill="#0052B4"/>
<path d="M16.3044 16.9407V28.8971C16.3044 31.7441 17.6796 34.2759 19.8007 35.8631L21.3224 35.4824L23.2428 37.4142C23.8106 37.5312 24.3982 37.5928 25.0001 37.5928C25.5987 37.5928 26.1834 37.532 26.7482 37.4162L28.9403 35.591L30.1993 35.8596C32.3195 34.2725 33.6957 31.7433 33.6957 28.8971V16.9407H16.3044Z" fill="#F0F0F0"/>
<path d="M16.3044 16.9407H19.7826V20.4189H16.3044V16.9407Z" fill="#D80027"/>
<path d="M23.2608 16.9407H26.739V20.4189H23.2608V16.9407Z" fill="#D80027"/>
<path d="M30.2173 16.9407H33.6956V20.4189H30.2173V16.9407Z" fill="#D80027"/>
<path d="M19.7826 20.4189H23.2608V23.8972H19.7826V20.4189Z" fill="#D80027"/>
<path d="M26.7391 20.4189H30.2174V23.8972H26.7391V20.4189Z" fill="#D80027"/>
<path d="M16.3044 23.896H19.7826V27.3742H16.3044V23.896Z" fill="#D80027"/>
<path d="M19.7826 27.3744H23.2608V30.8526H19.7826V27.3744Z" fill="#D80027"/>
<path d="M23.2608 23.896H26.739V27.3742H23.2608V23.896Z" fill="#D80027"/>
<path d="M30.2173 23.896H33.6956V27.3742H30.2173V23.896Z" fill="#D80027"/>
<path d="M26.7391 27.3744H30.2174V30.8526H26.7391V27.3744Z" fill="#D80027"/>
<path d="M23.2608 30.8525H26.739V34.3308H23.2608V30.8525Z" fill="#D80027"/>
<path d="M19.7826 30.8529H16.5288C16.8272 32.1459 17.414 33.329 18.2185 34.3311H19.7826V30.8529Z" fill="#D80027"/>
<path d="M30.2173 34.3313H31.7814C32.5861 33.3291 33.1726 32.1459 33.4711 30.853H30.2173V34.3313Z" fill="#D80027"/>
<path d="M19.7826 34.3312V35.8489C20.7942 36.6101 21.9764 37.1559 23.2608 37.4178V34.3312H19.7826Z" fill="#D80027"/>
<path d="M26.7391 34.3312V37.4178C28.0236 37.1561 29.2057 36.6101 30.2174 35.8489V34.3312H26.7391Z" fill="#D80027"/>
</g>
<defs>
<clipPath id="clip0_445_360">
<rect width="50" height="50" fill="white" transform="translate(0 0.63623)"/>
</clipPath>
</defs>
</svg>
