<svg width="50" height="51" viewBox="0 0 50 51" fill="none" xmlns="http://www.w3.org/2000/svg">
<g clip-path="url(#clip0_445_360)">
<path d="M25 50.6362C38.8071 50.6362 50 39.4434 50 25.6362C50 11.8291 38.8071 0.63623 25 0.63623C11.1929 0.63623 0 11.8291 0 25.6362C0 39.4434 11.1929 50.6362 25 50.6362Z" fill="#6DA544"/>
<path d="M14.1304 30.5276C14.1304 32.3285 15.5904 33.7884 17.3913 33.7884H27.1739C27.1739 35.2892 28.3905 36.5058 29.8913 36.5058H33.1521C34.6529 36.5058 35.8695 35.2892 35.8695 33.7884V30.5276H14.1304Z" fill="#F0F0F0"/>
<path d="M36.1413 14.7667V22.3754C36.1413 23.5741 35.1661 24.5493 33.9673 24.5493V27.8102C36.9641 27.8102 39.4021 25.3721 39.4021 22.3754V14.7667H36.1413Z" fill="#F0F0F0"/>
<path d="M12.7718 22.3754C12.7718 23.5741 11.7966 24.5493 10.5978 24.5493V27.8102C13.5946 27.8102 16.0326 25.3721 16.0326 22.3754V14.7667H12.7718V22.3754Z" fill="#F0F0F0"/>
<path d="M31.25 14.7667H34.5108V22.3754H31.25V14.7667Z" fill="#F0F0F0"/>
<path d="M26.3587 19.1145C26.3587 19.4142 26.1148 19.6579 25.8152 19.6579C25.5156 19.6579 25.2718 19.4141 25.2718 19.1145V14.7666H22.0109V19.1145C22.0109 19.4142 21.7671 19.6579 21.4675 19.6579C21.1679 19.6579 20.924 19.4141 20.924 19.1145V14.7666H17.6631V19.1145C17.6631 21.2122 19.3697 22.9188 21.4675 22.9188C22.2754 22.9188 23.0246 22.6649 23.6414 22.2337C24.2581 22.6648 25.0074 22.9188 25.8153 22.9188C25.978 22.9188 26.138 22.9074 26.2953 22.8874C26.0643 23.8395 25.2068 24.5492 24.1849 24.5492V27.8101C27.1816 27.8101 29.6196 25.372 29.6196 22.3753V19.1145V14.7666H26.3588V19.1145H26.3587Z" fill="#F0F0F0"/>
<path d="M17.6631 24.5493H22.5544V27.8102H17.6631V24.5493Z" fill="#F0F0F0"/>
</g>
<defs>
<clipPath id="clip0_445_360">
<rect width="50" height="50" fill="white" transform="translate(0 0.63623)"/>
</clipPath>
</defs>
</svg>
