<svg width="50" height="51" viewBox="0 0 50 51" fill="none" xmlns="http://www.w3.org/2000/svg">
<g clip-path="url(#clip0_445_360)">
<path d="M25 50.6362C38.8071 50.6362 50 39.4434 50 25.6362C50 11.8291 38.8071 0.63623 25 0.63623C11.1929 0.63623 0 11.8291 0 25.6362C0 39.4434 11.1929 50.6362 25 50.6362Z" fill="#F0F0F0"/>
<path d="M50 25.6362C50 14.8871 43.2156 5.72349 33.6956 2.19116V49.0813C43.2156 45.5489 50 36.3853 50 25.6362V25.6362Z" fill="#D80027"/>
<path d="M0 25.6362C0 36.3853 6.78447 45.5489 16.3044 49.0812V2.19116C6.78447 5.72349 0 14.8871 0 25.6362Z" fill="#0052B4"/>
</g>
<defs>
<clipPath id="clip0_445_360">
<rect width="50" height="50" fill="white" transform="translate(0 0.63623)"/>
</clipPath>
</defs>
</svg>
