<svg width="50" height="51" viewBox="0 0 50 51" fill="none" xmlns="http://www.w3.org/2000/svg">
<g clip-path="url(#clip0_445_360)">
<path d="M25 50.6362C38.8071 50.6362 50 39.4434 50 25.6362C50 11.8291 38.8071 0.63623 25 0.63623C11.1929 0.63623 0 11.8291 0 25.6362C0 39.4434 11.1929 50.6362 25 50.6362Z" fill="#F0F0F0"/>
<path d="M50 25.6363C50 15.7248 44.2319 7.16069 35.8695 3.11694V48.1555C44.2319 44.1119 50 35.5478 50 25.6363V25.6363Z" fill="#D80027"/>
<path d="M0 25.6363C0 35.5478 5.76807 44.1119 14.1305 48.1556V3.11694C5.76807 7.16069 0 15.7248 0 25.6363Z" fill="#D80027"/>
<path d="M29.3478 28.8971L33.6956 26.7232L31.5218 25.6363V23.4624L27.1739 25.6363L29.3478 21.2884H27.1739L25 18.0276L22.8261 21.2884H20.6521L22.8261 25.6363L18.4782 23.4624V25.6363L16.3044 26.7232L20.6521 28.8971L19.5652 31.071H23.9131V34.3319H26.0869V31.071H30.4348L29.3478 28.8971Z" fill="#D80027"/>
</g>
<defs>
<clipPath id="clip0_445_360">
<rect width="50" height="50" fill="white" transform="translate(0 0.63623)"/>
</clipPath>
</defs>
</svg>
