<svg width="50" height="51" viewBox="0 0 50 51" fill="none" xmlns="http://www.w3.org/2000/svg">
<g clip-path="url(#clip0_438_360)">
<path d="M35.8695 3.11689C32.5828 1.52764 28.8955 0.63623 25 0.63623C21.1045 0.63623 17.4172 1.52764 14.1305 3.11689L11.9565 25.6362L14.1305 48.1556C17.4172 49.7448 21.1045 50.6362 25 50.6362C28.8955 50.6362 32.5828 49.7448 35.8695 48.1556L38.0435 25.6362L35.8695 3.11689Z" fill="#FFDA44"/>
<path d="M24.9998 16.9407L27.158 23.5833H34.1431L28.4924 27.689L30.6507 34.3319L24.9998 30.2264L19.3489 34.3319L21.5076 27.689L15.8568 23.5833H22.8415L24.9998 16.9407Z" fill="#496E2D"/>
<path d="M14.1305 3.1178C5.76816 7.16145 0 15.7248 0 25.6363C0 35.5477 5.76816 44.1111 14.1305 48.1547V3.1178Z" fill="#496E2D"/>
<path d="M35.8695 3.1178V48.1547C44.2318 44.1111 50 35.5477 50 25.6363C50 15.7248 44.2318 7.16145 35.8695 3.1178Z" fill="#D80027"/>
</g>
<defs>
<clipPath id="clip0_438_360">
<rect width="50" height="50" fill="white" transform="translate(0 0.63623)"/>
</clipPath>
</defs>
</svg>
