<svg width="50" height="51" viewBox="0 0 50 51" fill="none" xmlns="http://www.w3.org/2000/svg">
<g clip-path="url(#clip0_445_360)">
<path d="M25 50.6362C38.8071 50.6362 50 39.4434 50 25.6362C50 11.8291 38.8071 0.63623 25 0.63623C11.1929 0.63623 0 11.8291 0 25.6362C0 39.4434 11.1929 50.6362 25 50.6362Z" fill="#F0F0F0"/>
<path d="M23.9131 25.6363H50C50 23.3798 49.6992 21.1939 49.1388 19.1145H23.9131V25.6363Z" fill="#D80027"/>
<path d="M23.9131 12.5928H46.3307C44.8003 10.0956 42.8436 7.88823 40.5621 6.07104H23.9131V12.5928Z" fill="#D80027"/>
<path d="M25 50.6363C30.8837 50.6363 36.2916 48.6027 40.5621 45.2015H9.43787C13.7084 48.6027 19.1163 50.6363 25 50.6363Z" fill="#D80027"/>
<path d="M3.66931 38.6797H46.3306C47.5593 36.675 48.5121 34.4835 49.1387 32.158H0.861206C1.48787 34.4835 2.4407 36.675 3.66931 38.6797V38.6797Z" fill="#D80027"/>
<path d="M11.5805 4.54033H13.8587L11.7396 6.07988L12.549 8.571L10.43 7.03145L8.31094 8.571L9.01016 6.41895C7.14434 7.97314 5.50898 9.79404 4.16133 11.8229H4.89131L3.54238 12.8029C3.33223 13.1535 3.13066 13.5097 2.9375 13.8711L3.58164 15.8536L2.37988 14.9805C2.08115 15.6134 1.80791 16.2605 1.5623 16.9212L2.27197 19.1056H4.89131L2.77217 20.6451L3.58164 23.1362L1.4626 21.5967L0.193262 22.5189C0.0662109 23.5402 0 24.5805 0 25.6362H25C25 11.8292 25 10.2015 25 0.63623C20.0613 0.63623 15.4575 2.06885 11.5805 4.54033V4.54033ZM12.549 23.1362L10.43 21.5967L8.31094 23.1362L9.12041 20.6451L7.00127 19.1056H9.62061L10.43 16.6145L11.2394 19.1056H13.8587L11.7396 20.6451L12.549 23.1362ZM11.7396 13.3625L12.549 15.8536L10.43 14.3141L8.31094 15.8536L9.12041 13.3625L7.00127 11.8229H9.62061L10.43 9.33184L11.2394 11.8229H13.8587L11.7396 13.3625ZM21.5164 23.1362L19.3974 21.5967L17.2783 23.1362L18.0878 20.6451L15.9687 19.1056H18.588L19.3974 16.6145L20.2067 19.1056H22.8261L20.7069 20.6451L21.5164 23.1362ZM20.7069 13.3625L21.5164 15.8536L19.3974 14.3141L17.2783 15.8536L18.0878 13.3625L15.9687 11.8229H18.588L19.3974 9.33184L20.2067 11.8229H22.8261L20.7069 13.3625ZM20.7069 6.07988L21.5164 8.571L19.3974 7.03145L17.2783 8.571L18.0878 6.07988L15.9687 4.54033H18.588L19.3974 2.04922L20.2067 4.54033H22.8261L20.7069 6.07988Z" fill="#0052B4"/>
</g>
<defs>
<clipPath id="clip0_445_360">
<rect width="50" height="50" fill="white" transform="translate(0 0.63623)"/>
</clipPath>
</defs>
</svg>
