<svg width="50" height="51" viewBox="0 0 50 51" fill="none" xmlns="http://www.w3.org/2000/svg">
<g clip-path="url(#clip0_445_360)">
<path d="M0 25.6363C0 28.6943 0.550098 31.6236 1.55498 34.3319L25 36.5058L48.445 34.3319C49.4499 31.6236 50 28.6943 50 25.6363C50 22.5782 49.4499 19.649 48.445 16.9406L25 14.7667L1.55498 16.9406C0.550098 19.649 0 22.5782 0 25.6363H0Z" fill="#FFDA44"/>
<path d="M48.445 16.9406C44.9127 7.4207 35.7491 0.63623 25 0.63623C14.2509 0.63623 5.08732 7.4207 1.55499 16.9406H48.445Z" fill="#D80027"/>
<path d="M1.55499 34.3318C5.08732 43.8517 14.2509 50.6362 25 50.6362C35.7491 50.6362 44.9127 43.8517 48.445 34.3318H1.55499Z" fill="#D80027"/>
</g>
<defs>
<clipPath id="clip0_445_360">
<rect width="50" height="50" fill="white" transform="translate(0 0.63623)"/>
</clipPath>
</defs>
</svg>
