<svg width="50" height="51" viewBox="0 0 50 51" fill="none" xmlns="http://www.w3.org/2000/svg">
<g clip-path="url(#clip0_445_360)">
<path d="M25 50.6362C38.8071 50.6362 50 39.4434 50 25.6362C50 11.8291 38.8071 0.63623 25 0.63623C11.1929 0.63623 0 11.8291 0 25.6362C0 39.4434 11.1929 50.6362 25 50.6362Z" fill="#F0F0F0"/>
<path d="M50 25.6362C50 39.4433 38.807 50.6362 25 50.6362C11.193 50.6362 0 39.4433 0 25.6362" fill="#496E2D"/>
<path d="M43.2631 18.033C42.3691 15.4976 39.9533 13.6798 37.112 13.6798H31.5218C27.9199 13.6798 25 16.5997 25 20.2016C25 21.3783 25.3133 22.5093 25.8585 23.4624C23.7826 23.4454 21.8614 23.4768 20.6522 23.4624C20.6522 20.9472 20.6522 17.7431 20.6522 17.0727L20.909 16.8158C22.0619 15.6629 21.6775 13.7414 21.6775 13.7414C21.6775 13.7414 19.7562 13.3572 18.6032 14.5101L17.2596 15.8537H15.7609C12.4591 15.8537 9.78263 18.5303 9.78263 21.832H14.1305V26.7233C14.1305 27.4387 14.2747 28.1202 14.5354 28.7409L13.0435 29.9841H10.8695V27.8102H8.69562V32.158H18.4782V36.5059H16.3043V38.6798H20.6522V34.332L22.6448 31.9406H27.3551L29.3478 34.332V36.5059H27.1738V38.6798H35.8694V26.7232C35.8694 24.9223 37.3294 23.4623 39.1303 23.4623C39.1766 23.4623 39.2225 23.464 39.2684 23.4658C39.1783 23.1174 39.1303 22.7521 39.1303 22.3754C39.1305 20.0464 40.9618 18.1452 43.2631 18.033V18.033ZM31.5218 36.5058V31.9406H31.7029L33.6956 34.3319V36.5058H31.5218Z" fill="#D80027"/>
</g>
<defs>
<clipPath id="clip0_445_360">
<rect width="50" height="50" fill="white" transform="translate(0 0.63623)"/>
</clipPath>
</defs>
</svg>
