<svg width="50" height="51" viewBox="0 0 50 51" fill="none" xmlns="http://www.w3.org/2000/svg">
<g clip-path="url(#clip0_445_360)">
<path d="M25 50.6362C38.8071 50.6362 50 39.4434 50 25.6362C50 11.8291 38.8071 0.63623 25 0.63623C11.1929 0.63623 0 11.8291 0 25.6362C0 39.4434 11.1929 50.6362 25 50.6362Z" fill="#F0F0F0"/>
<path d="M48.445 16.9407H1.55498C0.550098 19.649 0 22.5783 0 25.6363C0 28.6943 0.550098 31.6236 1.55498 34.3319H48.4451C49.45 31.6236 50 28.6943 50 25.6363C50 22.5783 49.45 19.649 48.445 16.9407Z" fill="#D80027"/>
<path d="M25 0.63623C17.4227 0.63623 10.6334 4.00771 6.04871 9.33184H43.9511C39.3666 4.00771 32.5772 0.63623 25 0.63623V0.63623Z" fill="#0052B4"/>
<path d="M43.9512 41.9407H6.04871C10.6334 47.2648 17.4227 50.6363 25 50.6363C32.5772 50.6363 39.3666 47.2648 43.9512 41.9407Z" fill="#0052B4"/>
</g>
<defs>
<clipPath id="clip0_445_360">
<rect width="50" height="50" fill="white" transform="translate(0 0.63623)"/>
</clipPath>
</defs>
</svg>
