<svg width="50" height="51" viewBox="0 0 50 51" fill="none" xmlns="http://www.w3.org/2000/svg">
<g clip-path="url(#clip0_445_360)">
<path d="M25 50.6362C38.8071 50.6362 50 39.4434 50 25.6362C50 11.8291 38.8071 0.63623 25 0.63623C11.1929 0.63623 0 11.8291 0 25.6362C0 39.4434 11.1929 50.6362 25 50.6362Z" fill="#F0F0F0"/>
<path d="M25 0.63623C15.0885 0.63623 6.5244 6.4043 2.48065 14.7667H47.5192C43.4756 6.4043 34.9114 0.63623 25 0.63623V0.63623Z" fill="#338AF3"/>
<path d="M25 50.6362C34.9114 50.6362 43.4756 44.8681 47.5193 36.5057H2.48065C6.5244 44.8681 15.0885 50.6362 25 50.6362Z" fill="#338AF3"/>
<path d="M32.4722 25.6362L29.4189 27.0724L31.0448 30.0293L27.7294 29.3951L27.3093 32.7443L25 30.281L22.6906 32.7443L22.2706 29.3951L18.9552 30.0292L20.581 27.0723L17.5278 25.6362L20.5811 24.2L18.9552 21.2431L22.2705 21.8773L22.6907 18.5281L25 20.9914L27.3094 18.5281L27.7294 21.8773L31.0449 21.2431L29.419 24.2001L32.4722 25.6362Z" fill="#FFDA44"/>
</g>
<defs>
<clipPath id="clip0_445_360">
<rect width="50" height="50" fill="white" transform="translate(0 0.63623)"/>
</clipPath>
</defs>
</svg>
