<svg width="50" height="51" viewBox="0 0 50 51" fill="none" xmlns="http://www.w3.org/2000/svg">
<g clip-path="url(#clip0_445_360)">
<path d="M50 25.6362C50 39.4433 38.807 50.6362 25 50.6362C11.193 50.6362 0 39.4433 0 25.6362C0 25.6421 25 0.639062 25 0.63623C38.807 0.63623 50 11.8292 50 25.6362Z" fill="#0052B4"/>
<path d="M25 0.63623C24.9986 0.63623 24.9972 0.636328 24.9958 0.636328L25 0.63623Z" fill="#F0F0F0"/>
<path d="M24.9331 25.6362H25C25 25.6136 25 25.5919 25 25.5693C24.9777 25.5917 24.9555 25.614 24.9331 25.6362Z" fill="#F0F0F0"/>
<path d="M25 13.6798C25 9.28088 25 6.39836 25 0.636353H24.9958C11.1906 0.638599 0 11.8305 0 25.6363H13.0435V18.2913L20.3884 25.6363H24.9332C24.9556 25.614 24.9778 25.5917 25.0001 25.5694C25.0001 23.8851 25.0001 22.3823 25.0001 21.0248L17.6551 13.6798H25Z" fill="#F0F0F0"/>
<path d="M12.648 3.89709C8.73791 6.12356 5.48733 9.37415 3.26086 13.2842V25.6363H9.78264V10.419V10.4189H25C25 8.36194 25 6.40237 25 3.89709H12.648Z" fill="#D80027"/>
<path d="M25 22.5619L16.1179 13.6799H13.0436C13.0436 13.6798 13.0436 13.6799 13.0436 13.6799L24.9999 25.6362H25C25 25.6362 25 23.5166 25 22.5619Z" fill="#D80027"/>
<path d="M15.0776 29.984L16.4497 32.853L19.548 32.1368L18.1605 34.9984L20.6521 36.9742L17.5499 37.6735L17.5586 40.8535L15.0776 38.864L12.5968 40.8535L12.6055 37.6735L9.50311 36.9742L11.9948 34.9984L10.6071 32.1368L13.7057 32.853L15.0776 29.984Z" fill="#F0F0F0"/>
<path d="M37.4301 35.4188L38.1161 36.8533L39.6653 36.4952L38.9715 37.9259L40.2174 38.9139L38.6662 39.2635L38.6705 40.8536L37.4301 39.8588L36.1897 40.8536L36.194 39.2635L34.6429 38.9139L35.8887 37.9259L35.1949 36.4952L36.7441 36.8533L37.4301 35.4188Z" fill="#F0F0F0"/>
<path d="M31.0481 20.2014L31.734 21.636L33.2833 21.2778L32.5895 22.7085L33.8353 23.6965L32.2842 24.0461L32.2884 25.6362L31.0481 24.6414L29.8077 25.6362L29.8119 24.0461L28.2608 23.6965L29.5066 22.7085L28.8129 21.2778L30.3621 21.636L31.0481 20.2014Z" fill="#F0F0F0"/>
<path d="M37.4301 11.5057L38.1161 12.9403L39.6653 12.5822L38.9716 14.013L40.2173 15.0009L38.6662 15.3506L38.6705 16.9406L37.4301 15.9458L36.1897 16.9406L36.194 15.3506L34.6429 15.0009L35.8886 14.013L35.1949 12.5822L36.7441 12.9403L37.4301 11.5057Z" fill="#F0F0F0"/>
<path d="M43.0047 18.0275L43.6906 19.462L45.2398 19.1038L44.5461 20.5346L45.7919 21.5226L44.2407 21.8723L44.245 23.4622L43.0047 22.4675L41.7642 23.4622L41.7684 21.8723L40.2173 21.5226L41.4631 20.5346L40.7694 19.1038L42.3185 19.462L43.0047 18.0275Z" fill="#F0F0F0"/>
<path d="M39.0186 25.6362L39.5581 27.297H41.3044L39.8916 28.3234L40.4314 29.9841L39.0186 28.9577L37.6059 29.9841L38.1454 28.3234L36.7327 27.297H38.4789L39.0186 25.6362Z" fill="#F0F0F0"/>
</g>
<defs>
<clipPath id="clip0_445_360">
<rect width="50" height="50" fill="white" transform="translate(0 0.63623)"/>
</clipPath>
</defs>
</svg>
