<svg width="50" height="51" viewBox="0 0 50 51" fill="none" xmlns="http://www.w3.org/2000/svg">
<g clip-path="url(#clip0_445_360)">
<path d="M0 25.6363C0 28.6943 0.550098 31.6236 1.55498 34.3319L25 35.4189L48.445 34.332C49.45 31.6236 50 28.6943 50 25.6363C50 22.5782 49.45 19.6489 48.445 16.9406L25 15.8536L1.55498 16.9406C0.550098 19.6489 0 22.5782 0 25.6363H0Z" fill="#FFDA44"/>
<path d="M25 0.63623C14.2509 0.63623 5.08732 7.4206 1.55499 16.9406H48.4451C44.9127 7.4206 35.7491 0.63623 25 0.63623V0.63623Z" fill="#D80027"/>
<path d="M48.445 34.3318H1.55499C5.08732 43.8517 14.2509 50.6362 25 50.6362C35.7491 50.6362 44.9127 43.8517 48.445 34.3318Z" fill="#496E2D"/>
<path d="M24.9998 16.9407L27.158 23.5833H34.1431L28.4925 27.689L30.6507 34.3319L24.9998 30.2264L19.3489 34.3319L21.5075 27.689L15.8568 23.5833H22.8416L24.9998 16.9407Z" fill="black"/>
</g>
<defs>
<clipPath id="clip0_445_360">
<rect width="50" height="50" fill="white" transform="translate(0 0.63623)"/>
</clipPath>
</defs>
</svg>
