<svg width="50" height="51" viewBox="0 0 50 51" fill="none" xmlns="http://www.w3.org/2000/svg">
<g clip-path="url(#clip0_445_360)">
<path d="M25 50.6362C38.8071 50.6362 50 39.4434 50 25.6362C50 11.8291 38.8071 0.63623 25 0.63623C11.1929 0.63623 0 11.8291 0 25.6362C0 39.4434 11.1929 50.6362 25 50.6362Z" fill="#F0F0F0"/>
<path d="M19.5653 22.3754H49.7884C48.1904 10.1091 37.7019 0.63623 25 0.63623C23.1333 0.63623 21.3152 0.842578 19.5652 1.23047V22.3754H19.5653Z" fill="#D80027"/>
<path d="M13.0434 22.3753V3.67603C6.17889 7.42153 1.26464 14.2917 0.211609 22.3754H13.0434V22.3753Z" fill="#D80027"/>
<path d="M13.0433 28.8971H0.211609C1.26464 36.9808 6.17889 43.851 13.0434 47.5964L13.0433 28.8971Z" fill="#D80027"/>
<path d="M19.5652 28.8972V50.042C21.3152 50.4299 23.1333 50.6363 25 50.6363C37.7019 50.6363 48.1904 41.1634 49.7884 28.8971H19.5652V28.8972Z" fill="#D80027"/>
</g>
<defs>
<clipPath id="clip0_445_360">
<rect width="50" height="50" fill="white" transform="translate(0 0.63623)"/>
</clipPath>
</defs>
</svg>
