<svg width="50" height="51" viewBox="0 0 50 51" fill="none" xmlns="http://www.w3.org/2000/svg">
<g clip-path="url(#clip0_445_360)">
<path d="M25 50.6362C38.8071 50.6362 50 39.4434 50 25.6362C50 11.8291 38.8071 0.63623 25 0.63623C11.1929 0.63623 0 11.8291 0 25.6362C0 39.4434 11.1929 50.6362 25 50.6362Z" fill="#F0F0F0"/>
<path d="M25 19.1144H49.1388C48.5119 16.7888 47.5592 14.5973 46.3307 12.5927H25V19.1144Z" fill="#338AF3"/>
<path d="M9.43777 45.2015H40.5621C42.8436 43.3843 44.8003 41.1771 46.3305 38.6797H3.66931C5.19968 41.177 7.15632 43.3843 9.43777 45.2015V45.2015Z" fill="#338AF3"/>
<path d="M25 0.63623V6.071H40.5622C36.2917 2.66982 30.8837 0.63623 25 0.63623V0.63623Z" fill="#338AF3"/>
<path d="M25 19.1144H49.1388C48.5119 16.7888 47.5592 14.5973 46.3307 12.5927H25V19.1144Z" fill="#338AF3"/>
<path d="M0 25.6362C0 27.8928 0.300781 30.0785 0.86123 32.158H49.1389C49.6992 30.0785 50 27.8928 50 25.6362H0Z" fill="#338AF3"/>
<path d="M21.7391 15.2672L18.6858 16.7034L20.3117 19.6604L16.9963 19.0263L16.5761 22.3754L14.267 19.9121L11.9576 22.3754L11.5376 19.0263L8.22214 19.6603L9.84792 16.7033L6.7948 15.2672L9.84802 13.8312L8.22214 10.8741L11.5375 11.5083L11.9577 8.15918L14.267 10.6225L16.5762 8.15918L16.9963 11.5083L20.3118 10.8741L18.6859 13.8313L21.7391 15.2672Z" fill="#FFDA44"/>
</g>
<defs>
<clipPath id="clip0_445_360">
<rect width="50" height="50" fill="white" transform="translate(0 0.63623)"/>
</clipPath>
</defs>
</svg>
