<svg width="50" height="51" viewBox="0 0 50 51" fill="none" xmlns="http://www.w3.org/2000/svg">
<g clip-path="url(#clip0_445_360)">
<path d="M25 50.6362C38.8071 50.6362 50 39.4434 50 25.6362C50 11.8291 38.8071 0.63623 25 0.63623C11.1929 0.63623 0 11.8291 0 25.6362C0 39.4434 11.1929 50.6362 25 50.6362Z" fill="#F0F0F0"/>
<path d="M50 25.6363C50 15.7248 44.2319 7.16069 35.8695 3.11694V48.1555C44.2319 44.1119 50 35.5478 50 25.6363V25.6363Z" fill="#D80027"/>
<path d="M0 25.6363C0 35.5478 5.76807 44.1119 14.1305 48.1556V3.11694C5.76807 7.16069 0 15.7248 0 25.6363Z" fill="#6DA544"/>
<path d="M18.4782 25.6363C18.4782 29.2382 21.3981 32.1581 25 32.1581C28.6018 32.1581 31.5218 29.2382 31.5218 25.6363V23.4624H18.4782V25.6363Z" fill="#6DA544"/>
<path d="M33.6956 21.2884H27.1738C27.1738 20.0878 26.2005 19.1145 24.9999 19.1145C23.7993 19.1145 22.826 20.0878 22.826 21.2884H16.3042C16.3042 22.4891 17.35 23.4624 18.5505 23.4624H18.4781C18.4781 24.663 19.4514 25.6363 20.6521 25.6363C20.6521 26.837 21.6253 27.8102 22.826 27.8102H27.1738C28.3745 27.8102 29.3478 26.837 29.3478 25.6363C30.5484 25.6363 31.5217 24.663 31.5217 23.4624H31.4492C32.6499 23.4624 33.6956 22.4891 33.6956 21.2884Z" fill="#FF9811"/>
</g>
<defs>
<clipPath id="clip0_445_360">
<rect width="50" height="50" fill="white" transform="translate(0 0.63623)"/>
</clipPath>
</defs>
</svg>
