<svg width="50" height="51" viewBox="0 0 50 51" fill="none" xmlns="http://www.w3.org/2000/svg">
<g clip-path="url(#clip0_445_360)">
<path d="M25 50.6362C38.8071 50.6362 50 39.4434 50 25.6362C50 11.8291 38.8071 0.63623 25 0.63623C11.1929 0.63623 0 11.8291 0 25.6362C0 39.4434 11.1929 50.6362 25 50.6362Z" fill="#D80027"/>
<path d="M39.7742 21.1528H28.4877L25 10.4188L21.5123 21.1528H10.2258L19.3567 27.7868L15.8689 38.5211L25 31.887L34.131 38.5212L30.6432 27.7869L39.7742 21.1528ZM21.9123 26.9564L23.0917 23.3266H26.9082L28.0877 26.9564V26.9565L25 29.1998L21.9124 26.9565L21.9123 26.9564ZM26.2019 21.1528H23.7981L25 17.4536L26.2019 21.1528ZM29.9368 25.613L29.1939 23.3267H33.0835L29.9368 25.613ZM20.8059 23.3267L20.0631 25.613L16.9163 23.3267H20.8059ZM20.004 32.8297L21.2059 29.1305L23.1508 30.5434L20.004 32.8297ZM26.8492 30.5435L28.794 29.1306L29.996 32.8298L26.8492 30.5435Z" fill="#FFDA44"/>
</g>
<defs>
<clipPath id="clip0_445_360">
<rect width="50" height="50" fill="white" transform="translate(0 0.63623)"/>
</clipPath>
</defs>
</svg>
