<svg width="50" height="51" viewBox="0 0 50 51" fill="none" xmlns="http://www.w3.org/2000/svg">
<g clip-path="url(#clip0_438_360)">
<path d="M25 50.6362C38.8071 50.6362 50 39.4434 50 25.6362C50 11.8291 38.8071 0.63623 25 0.63623C11.1929 0.63623 0 11.8291 0 25.6362C0 39.4434 11.1929 50.6362 25 50.6362Z" fill="#F0F0F0"/>
<path d="M50 25.6362C50 11.8292 38.807 0.63623 25 0.63623C20.1094 0.63623 15.5474 2.04199 11.6941 4.46934L17.1739 6.79756L9.78259 9.93799L17.1739 13.0783L9.78259 16.2186L17.1739 19.3587L9.78259 22.4984L17.1739 25.638L9.78259 28.7782L17.1739 31.9183L9.78259 35.058L17.1739 38.198L9.78259 41.3383L17.1739 44.478L11.6966 46.805C15.5494 49.2312 20.1103 50.6362 25 50.6362C38.807 50.6362 50 39.4433 50 25.6362Z" fill="#751A46"/>
</g>
<defs>
<clipPath id="clip0_438_360">
<rect width="50" height="50" fill="white" transform="translate(0 0.63623)"/>
</clipPath>
</defs>
</svg>
