<svg width="50" height="51" viewBox="0 0 50 51" fill="none" xmlns="http://www.w3.org/2000/svg">
<g clip-path="url(#clip0_438_360)">
<path d="M25 50.6362C38.8071 50.6362 50 39.4434 50 25.6362C50 11.8291 38.8071 0.63623 25 0.63623C11.1929 0.63623 0 11.8291 0 25.6362C0 39.4434 11.1929 50.6362 25 50.6362Z" fill="#F0F0F0"/>
<path d="M25 0.63623C14.2509 0.63623 5.08732 7.4206 1.55499 16.9406H48.4451C44.9127 7.4206 35.7491 0.63623 25 0.63623V0.63623Z" fill="#A2001D"/>
<path d="M25 50.6362C35.7491 50.6362 44.9127 43.8518 48.445 34.3318H1.55499C5.08732 43.8518 14.2509 50.6362 25 50.6362Z" fill="#0052B4"/>
</g>
<defs>
<clipPath id="clip0_438_360">
<rect width="50" height="50" fill="white" transform="translate(0 0.63623)"/>
</clipPath>
</defs>
</svg>
