<svg width="50" height="51" viewBox="0 0 50 51" fill="none" xmlns="http://www.w3.org/2000/svg">
<g clip-path="url(#clip0_438_360)">
<path d="M0 25.6362C0 11.8292 11.193 0.63623 25 0.63623C38.807 0.63623 50 11.8292 50 25.6362L25 27.8102L0 25.6362Z" fill="#FFDA44"/>
<path d="M3.34534 38.1362C7.66809 45.6085 15.7466 50.6362 25 50.6362C34.2534 50.6362 42.332 45.6085 46.6547 38.1362L25 36.5057L3.34534 38.1362Z" fill="#D80027"/>
<path d="M46.6547 38.1362C48.7818 34.4591 50 30.19 50 25.6362H0C0 30.19 1.21816 34.4591 3.34531 38.1362H46.6547Z" fill="#0052B4"/>
<path d="M25 34.3319C29.8024 34.3319 33.6956 30.4387 33.6956 25.6363C33.6956 20.8338 29.8024 16.9407 25 16.9407C20.1975 16.9407 16.3044 20.8338 16.3044 25.6363C16.3044 30.4387 20.1975 34.3319 25 34.3319Z" fill="#FFDA44"/>
<path d="M25 31.071C22.0032 31.071 19.5652 28.633 19.5652 25.6363V22.3754C19.5652 19.3787 22.0033 16.9407 25 16.9407C27.9967 16.9407 30.4348 19.3788 30.4348 22.3754V25.6363C30.4348 28.6331 27.9968 31.071 25 31.071Z" fill="#338AF3"/>
<path d="M33.6956 12.5927H27.1738C27.1738 11.3922 26.2005 10.4188 24.9999 10.4188C23.7993 10.4188 22.826 11.3922 22.826 12.5927H16.3042C16.3042 13.7934 17.35 14.7667 18.5505 14.7667H18.4781C18.4781 15.9674 19.4514 16.9406 20.6521 16.9406C20.6521 18.1413 21.6253 19.1145 22.826 19.1145H27.1738C28.3745 19.1145 29.3478 18.1413 29.3478 16.9406C30.5484 16.9406 31.5217 15.9674 31.5217 14.7667H31.4493C32.6499 14.7667 33.6956 13.7933 33.6956 12.5927V12.5927Z" fill="black"/>
</g>
<defs>
<clipPath id="clip0_438_360">
<rect width="50" height="50" fill="white" transform="translate(0 0.63623)"/>
</clipPath>
</defs>
</svg>
