<svg width="50" height="51" viewBox="0 0 50 51" fill="none" xmlns="http://www.w3.org/2000/svg">
<g clip-path="url(#clip0_445_360)">
<path d="M1.55499 34.3318C5.08732 43.8517 14.2509 50.6362 25 50.6362C35.7491 50.6362 44.9127 43.8517 48.445 34.3318L25 32.158L1.55499 34.3318Z" fill="#FFDA44"/>
<path d="M25 0.63623C14.2509 0.63623 5.08732 7.42061 1.55499 16.9406L25 19.1145L48.445 16.9405C44.9127 7.4206 35.7491 0.63623 25 0.63623Z" fill="black"/>
<path d="M1.55498 16.9407C0.550098 19.649 0 22.5783 0 25.6363C0 28.6943 0.550098 31.6236 1.55498 34.3319H48.4451C49.45 31.6236 50 28.6943 50 25.6363C50 22.5783 49.45 19.649 48.445 16.9407H1.55498Z" fill="#D80027"/>
</g>
<defs>
<clipPath id="clip0_445_360">
<rect width="50" height="50" fill="white" transform="translate(0 0.63623)"/>
</clipPath>
</defs>
</svg>
