<svg width="50" height="51" viewBox="0 0 50 51" fill="none" xmlns="http://www.w3.org/2000/svg">
<g clip-path="url(#clip0_445_360)">
<path d="M0 25.6362C0 36.3852 6.78438 45.5488 16.3042 49.0811L18.4782 25.6361L16.3042 2.19116C6.78438 5.72358 0 14.8871 0 25.6362Z" fill="#6DA544"/>
<path d="M50 25.6362C50 11.8292 38.807 0.63623 25 0.63623C21.942 0.63623 19.0126 1.18633 16.3042 2.19121V49.0812C19.0126 50.0862 21.942 50.6362 25 50.6362C38.807 50.6362 50 39.4433 50 25.6362Z" fill="#D80027"/>
<path d="M16.3044 34.3319C21.1068 34.3319 25 30.4387 25 25.6363C25 20.8338 21.1068 16.9407 16.3044 16.9407C11.5019 16.9407 7.60876 20.8338 7.60876 25.6363C7.60876 30.4387 11.5019 34.3319 16.3044 34.3319Z" fill="#FFDA44"/>
<path d="M11.4131 21.2883V26.7231C11.4131 29.4245 13.6029 31.6144 16.3044 31.6144C19.0059 31.6144 21.1957 29.4246 21.1957 26.7231V21.2883H11.4131Z" fill="#D80027"/>
<path d="M16.3044 28.3536C15.4054 28.3536 14.674 27.6222 14.674 26.7231V24.5493H17.9348V26.7232C17.9348 27.6222 17.2033 28.3536 16.3044 28.3536Z" fill="#F0F0F0"/>
</g>
<defs>
<clipPath id="clip0_445_360">
<rect width="50" height="50" fill="white" transform="translate(0 0.63623)"/>
</clipPath>
</defs>
</svg>
