<svg width="50" height="51" viewBox="0 0 50 51" fill="none" xmlns="http://www.w3.org/2000/svg">
<g clip-path="url(#clip0_438_360)">
<path d="M25 50.6362C38.8071 50.6362 50 39.4434 50 25.6362C50 11.8291 38.8071 0.63623 25 0.63623C11.1929 0.63623 0 11.8291 0 25.6362C0 39.4434 11.1929 50.6362 25 50.6362Z" fill="#F0F0F0"/>
<path d="M49.7884 22.3754H28.261H28.2609V0.847852C27.1935 0.708887 26.1052 0.63623 25 0.63623C23.8948 0.63623 22.8065 0.708887 21.7392 0.847852V22.3752V22.3753H0.211621C0.0726563 23.4428 0 24.5309 0 25.6362C0 26.7416 0.0726563 27.8297 0.211621 28.8971H21.739H21.7391V50.4246C22.8065 50.5636 23.8948 50.6362 25 50.6362C26.1052 50.6362 27.1935 50.5637 28.2608 50.4246V28.8973V28.8972H49.7884C49.9273 27.8297 50 26.7416 50 25.6362C50 24.5309 49.9273 23.4428 49.7884 22.3754V22.3754Z" fill="#D80027"/>
</g>
<defs>
<clipPath id="clip0_438_360">
<rect width="50" height="50" fill="white" transform="translate(0 0.63623)"/>
</clipPath>
</defs>
</svg>
