<svg width="50" height="51" viewBox="0 0 50 51" fill="none" xmlns="http://www.w3.org/2000/svg">
<g clip-path="url(#clip0_445_360)">
<path d="M25 50.6362C38.8071 50.6362 50 39.4434 50 25.6362C50 11.8291 38.8071 0.63623 25 0.63623C11.1929 0.63623 0 11.8291 0 25.6362C0 39.4434 11.1929 50.6362 25 50.6362Z" fill="#F0F0F0"/>
<path d="M33.6956 25.6363C33.6956 27.8102 29.8024 33.245 25 33.245C20.1975 33.245 16.3044 27.8102 16.3044 25.6363C16.3044 20.8337 20.1975 16.9407 25 16.9407C29.8024 16.9407 33.6956 20.8337 33.6956 25.6363Z" fill="#D80027"/>
<path d="M33.6956 25.6362C33.6956 30.4388 29.8024 34.3318 25 34.3318C20.1975 34.3318 16.3044 30.4388 16.3044 25.6362" fill="#0052B4"/>
<path d="M34.2162 33.3225L36.5217 31.0171L38.0586 32.5541L35.7532 34.8595L34.2162 33.3225Z" fill="black"/>
<path d="M30.3728 37.165L32.6782 34.8596L34.2152 36.3966L31.9098 38.702L30.3728 37.165Z" fill="black"/>
<path d="M38.8275 37.9332L41.1329 35.6278L42.6699 37.1648L40.3645 39.4702L38.8275 37.9332Z" fill="black"/>
<path d="M34.9841 41.7762L37.2895 39.4708L38.8264 41.0078L36.521 43.3132L34.9841 41.7762Z" fill="black"/>
<path d="M36.5218 35.6281L38.8272 33.3226L40.3642 34.8596L38.0588 37.165L36.5218 35.6281Z" fill="black"/>
<path d="M32.6793 39.4705L34.9847 37.165L36.5217 38.702L34.2163 41.0074L32.6793 39.4705Z" fill="black"/>
<path d="M38.8376 17.9541L32.6899 11.8063L34.2268 10.2693L40.3746 16.4171L38.8376 17.9541Z" fill="black"/>
<path d="M32.6887 16.4178L30.3833 14.1124L31.9202 12.5755L34.2256 14.8809L32.6887 16.4178Z" fill="black"/>
<path d="M36.5311 20.2611L34.2257 17.9557L35.7626 16.4188L38.068 18.7242L36.5311 20.2611Z" fill="black"/>
<path d="M37.2991 11.8062L34.9937 9.50074L36.5306 7.96377L38.836 10.2692L37.2991 11.8062Z" fill="black"/>
<path d="M41.1436 15.6499L38.8381 13.3445L40.3751 11.8075L42.6805 14.1129L41.1436 15.6499Z" fill="black"/>
<path d="M8.86273 35.6237L15.0105 41.7715L13.4736 43.3084L7.32577 37.1606L8.86273 35.6237Z" fill="black"/>
<path d="M15.0102 37.1594L17.3156 39.4648L15.7787 41.0017L13.4733 38.6963L15.0102 37.1594Z" fill="black"/>
<path d="M11.1675 33.3179L13.4729 35.6233L11.9359 37.1603L9.63052 34.8548L11.1675 33.3179Z" fill="black"/>
<path d="M13.4732 31.0117L19.621 37.1595L18.084 38.6965L11.9362 32.5487L13.4732 31.0117Z" fill="black"/>
<path d="M15.0099 9.49597L8.8621 15.6438L7.32513 14.1068L13.4729 7.95901L15.0099 9.49597Z" fill="black"/>
<path d="M17.3153 11.8011L11.1675 17.9489L9.63055 16.412L15.7783 10.2642L17.3153 11.8011Z" fill="black"/>
<path d="M19.6229 14.1079L13.4751 20.2557L11.9382 18.7188L18.086 12.571L19.6229 14.1079Z" fill="black"/>
</g>
<defs>
<clipPath id="clip0_445_360">
<rect width="50" height="50" fill="white" transform="translate(0 0.63623)"/>
</clipPath>
</defs>
</svg>
