<svg width="50" height="51" viewBox="0 0 50 51" fill="none" xmlns="http://www.w3.org/2000/svg">
<g clip-path="url(#clip0_438_360)">
<path d="M25 50.6362C38.8071 50.6362 50 39.4434 50 25.6362C50 11.8291 38.8071 0.63623 25 0.63623C11.1929 0.63623 0 11.8291 0 25.6362C0 39.4434 11.1929 50.6362 25 50.6362Z" fill="#F0F0F0"/>
<path d="M33.1198 19.1145H29.8489C29.876 19.4739 29.8913 19.8366 29.8913 20.2014C29.8913 22.6198 29.2868 24.9638 28.233 26.6324C27.9079 27.147 27.3616 27.8738 26.6304 28.364V19.1144H23.3695V28.364C22.6384 27.8738 22.092 27.1471 21.7669 26.6324C20.713 24.9638 20.1086 22.6198 20.1086 20.2014C20.1086 19.8366 20.124 19.4739 20.151 19.1145H16.8801C16.8591 19.4722 16.8477 19.8345 16.8477 20.2014C16.8477 26.9061 20.4285 32.1579 24.9998 32.1579C29.5711 32.1579 33.152 26.9061 33.152 20.2014C33.1522 19.8345 33.1407 19.4722 33.1198 19.1145V19.1145Z" fill="#D80027"/>
<path d="M10.3261 12.5928H13.5869V14.7667H16.8477V12.5928H20.1086V14.7667H23.3694V12.5928H26.6303V14.7667H29.8911V12.5928H33.1519V14.7667H36.4128V12.5928H39.6736V14.7667H47.519C43.4756 6.4043 34.9114 0.63623 25 0.63623C15.0886 0.63623 6.5244 6.4043 2.48065 14.7667H10.3261V12.5928Z" fill="#6DA544"/>
<path d="M39.6739 36.5057V38.6797H36.4131V36.5057H33.1522V38.6797H29.8914V36.5057H26.6306V38.6797H23.3697V36.5057H20.1089V38.6797H16.848V36.5057H13.5869V38.6797H10.3261V36.5057H2.48065C6.5244 44.8681 15.0885 50.6362 25 50.6362C34.9115 50.6362 43.4756 44.8681 47.5193 36.5057H39.6739Z" fill="#D80027"/>
</g>
<defs>
<clipPath id="clip0_438_360">
<rect width="50" height="50" fill="white" transform="translate(0 0.63623)"/>
</clipPath>
</defs>
</svg>
