<svg width="50" height="51" viewBox="0 0 50 51" fill="none" xmlns="http://www.w3.org/2000/svg">
<g clip-path="url(#clip0_445_360)">
<path d="M25 50.6362C38.8071 50.6362 50 39.4434 50 25.6362C50 11.8291 38.8071 0.63623 25 0.63623C11.1929 0.63623 0 11.8291 0 25.6362C0 39.4434 11.1929 50.6362 25 50.6362Z" fill="#D80027"/>
<path d="M25 37.5928C31.6034 37.5928 36.9565 32.2396 36.9565 25.6362C36.9565 19.0328 31.6034 13.6797 25 13.6797C18.3966 13.6797 13.0435 19.0328 13.0435 25.6362C13.0435 32.2396 18.3966 37.5928 25 37.5928Z" fill="#F0F0F0"/>
<path d="M26.473 21.0646L28.5241 23.8912L31.8461 22.8141L29.7917 25.6383L31.8427 28.4649L28.5218 27.3836L26.4674 30.2078L26.4695 26.7156L23.1487 25.6343L26.4708 24.5572L26.473 21.0646Z" fill="#D80027"/>
<path d="M27.7174 32.7015C23.8154 32.7015 20.6521 29.5382 20.6521 25.6363C20.6521 21.7343 23.8154 18.571 27.7174 18.571C28.934 18.571 30.0788 18.8786 31.0782 19.4202C29.5103 17.8869 27.3663 16.9406 25 16.9406C20.1976 16.9406 16.3044 20.8337 16.3044 25.6362C16.3044 30.4386 20.1976 34.3318 25 34.3318C27.3663 34.3318 29.5104 33.3854 31.0782 31.8521C30.0788 32.3939 28.934 32.7015 27.7174 32.7015Z" fill="#D80027"/>
</g>
<defs>
<clipPath id="clip0_445_360">
<rect width="50" height="50" fill="white" transform="translate(0 0.63623)"/>
</clipPath>
</defs>
</svg>
