<svg width="50" height="51" viewBox="0 0 50 51" fill="none" xmlns="http://www.w3.org/2000/svg">
<g clip-path="url(#clip0_445_360)">
<path d="M33.6956 2.19121C30.9873 1.18633 28.058 0.63623 25 0.63623C21.942 0.63623 19.0127 1.18633 16.3044 2.19121L14.1305 25.6362L16.3044 49.0812C19.0127 50.0862 21.942 50.6362 25 50.6362C28.058 50.6362 30.9873 50.0862 33.6956 49.0812L35.8696 25.6362L33.6956 2.19121Z" fill="#FFDA44"/>
<path d="M50 25.6362C50 14.8872 43.2156 5.72351 33.6956 2.19128V49.0814C43.2156 45.5489 50 36.3854 50 25.6362V25.6362Z" fill="#D80027"/>
<path d="M0 25.6362C0 36.3854 6.78437 45.5489 16.3044 49.0813V2.19128C6.78437 5.72351 0 14.8872 0 25.6362V25.6362Z" fill="black"/>
</g>
<defs>
<clipPath id="clip0_445_360">
<rect width="50" height="50" fill="white" transform="translate(0 0.63623)"/>
</clipPath>
</defs>
</svg>
